<svg width="48" height="48" viewBox="0 0 48 48" fill="none" xmlns="http://www.w3.org/2000/svg">
<rect width="48" height="48" rx="24" fill="black"/>
<path d="M32.2586 22.7775C32.1144 22.7084 31.9679 22.6419 31.8196 22.5782C31.5612 17.8172 28.9597 15.0915 24.5915 15.0636C24.5717 15.0635 24.552 15.0635 24.5322 15.0635C21.9195 15.0635 19.7465 16.1788 18.409 18.2082L20.8114 19.8562C21.8105 18.3403 23.3786 18.0171 24.5334 18.0171C24.5467 18.0171 24.5601 18.0171 24.5733 18.0172C26.0116 18.0264 27.0969 18.4446 27.7994 19.2601C28.3106 19.8538 28.6525 20.6742 28.8218 21.7097C27.5466 21.4929 26.1675 21.4263 24.6931 21.5108C20.54 21.7501 17.8701 24.1722 18.0494 27.5379C18.1404 29.2452 18.9909 30.7139 20.4442 31.6734C21.6729 32.4844 23.2554 32.8811 24.9001 32.7913C27.0722 32.6722 28.7761 31.8435 29.9648 30.3282C30.8676 29.1775 31.4386 27.6863 31.6907 25.8073C32.7258 26.432 33.493 27.2541 33.9167 28.2423C34.6371 29.9222 34.6791 32.6827 32.4267 34.9332C30.4532 36.9048 28.081 37.7577 24.4959 37.784C20.519 37.7545 17.5114 36.4792 15.5559 33.9933C13.7248 31.6655 12.7785 28.3033 12.7432 24C12.7785 19.6966 13.7248 16.3344 15.5559 14.0067C17.5114 11.5208 20.519 10.2454 24.4958 10.2159C28.5015 10.2457 31.5615 11.5272 33.5918 14.025C34.5874 15.2499 35.338 16.7904 35.8328 18.5864L38.648 17.8353C38.0483 15.6246 37.1045 13.7195 35.8202 12.1396C33.2173 8.93723 29.4106 7.29632 24.5056 7.2623H24.486C19.591 7.2962 15.8269 8.94336 13.2981 12.158C11.0479 15.0185 9.88715 18.9989 9.84814 23.9882L9.84802 24L9.84814 24.0118C9.88715 29.0011 11.0479 32.9815 13.2981 35.8421C15.8269 39.0566 19.591 40.7039 24.486 40.7377H24.5056C28.8575 40.7075 31.925 39.5681 34.4521 37.0434C37.7583 33.7403 37.6588 29.6 36.5691 27.0583C35.7873 25.2356 34.2967 23.7552 32.2586 22.7775ZM24.7447 29.842C22.9244 29.9445 21.0334 29.1275 20.9402 27.3775C20.8711 26.08 21.8636 24.6322 24.8564 24.4597C25.1991 24.44 25.5354 24.4303 25.8658 24.4303C26.9529 24.4303 27.9699 24.5359 28.8945 24.738C28.5496 29.0448 26.5268 29.7442 24.7447 29.842Z" fill="white"/>
</svg>
